<svg id="Laag_1" data-name="Laag 1" xmlns="http://www.w3.org/2000/svg" viewBox="0 0 619.58231 125.94583"><defs><style>.cls-1{fill:#1d1d1b;}.cls-2{fill:#878787;}.cls-3{fill:#e30613;}</style></defs><path class="cls-1" d="M140.20884,408.8001a20.00381,20.00381,0,0,1,1.64531-8.08023,21.14025,21.14025,0,0,1,11.07991-11.07936,19.99926,19.99926,0,0,1,8.08078-1.64586H192.852v13.88674H161.01484a6.85952,6.85952,0,0,0-6.91926,6.91871,7.04837,7.04837,0,0,0,.532,2.734,6.78706,6.78706,0,0,0,3.67741,3.70152,6.85747,6.85747,0,0,0,2.70985.53254H174.901a20.4371,20.4371,0,0,1,8.10488,1.62065,20.7127,20.7127,0,0,1,11.07992,11.08046,21.00716,21.00716,0,0,1,0,16.18457,20.91367,20.91367,0,0,1-4.45158,6.60423,21.18438,21.18438,0,0,1-6.62834,4.47623A20.17213,20.17213,0,0,1,174.901,457.379H144.07966V443.49228H174.901a6.91889,6.91889,0,1,0,0-13.83742H161.01484a19.981,19.981,0,0,1-8.08078-1.64585,21.07406,21.07406,0,0,1-11.07991-11.10347A20.16951,20.16951,0,0,1,140.20884,408.8001Z" transform="translate(-140.20884 -387.02709)"/><path class="cls-1" d="M265.15878,450.26635a35.78867,35.78867,0,0,1-32.78061,7.33073,36.13793,36.13793,0,0,1-25.11238-25.11184,35.98718,35.98718,0,0,1,0-19.04016,35.89842,35.89842,0,0,1,9.26586-15.87008,35.9846,35.9846,0,0,1,15.84652-9.26586,35.09027,35.09027,0,0,1,9.50748-1.28205,35.832,35.832,0,0,1,12.43483,2.2014,34.49293,34.49293,0,0,1,10.8383,6.41137l-7.35428,12.09625a20.80282,20.80282,0,0,0-7.20965-5.0559,22.0615,22.0615,0,0,0-8.7092-1.76639,21.402,21.402,0,0,0-8.61278,1.74228,22.63118,22.63118,0,0,0-7.01569,4.7173,22.08162,22.08162,0,0,0-4.742,7.01624,21.46567,21.46567,0,0,0-1.74173,8.58758,21.12293,21.12293,0,0,0,1.74173,8.54045,22.371,22.371,0,0,0,11.75765,11.73354,21.41964,21.41964,0,0,0,8.61278,1.74119,22.06064,22.06064,0,0,0,8.7092-1.76529,20.79144,20.79144,0,0,0,7.20965-5.057Z" transform="translate(-140.20884 -387.02709)"/><path class="cls-1" d="M292.03152,457.379H278.14533V387.99465h13.88619v27.77347h27.72471V387.99465H333.643V457.379H319.75623V429.65486H292.03152Z" transform="translate(-140.20884 -387.02709)"/><polygon class="cls-1" points="259.838 70.352 211.26 70.352 211.26 0.968 225.146 0.968 225.146 56.465 259.838 56.465 259.838 70.352"/><path class="cls-1" d="M466.93447,457.379H453.04774V443.49228H425.27482V457.379h-13.838v-41.6109a27.04229,27.04229,0,0,1,2.1773-10.81418,28.23623,28.23623,0,0,1,5.927-8.82974,27.732,27.732,0,0,1,8.80618-5.95224,27.94307,27.94307,0,0,1,21.62783,0,27.86,27.86,0,0,1,14.782,14.782,27.0517,27.0517,0,0,1,2.1773,10.81418Zm-13.88673-27.72416V415.76812a13.543,13.543,0,0,0-1.08865-5.39449,13.85414,13.85414,0,0,0-7.40305-7.403,13.90463,13.90463,0,0,0-10.78953,0,13.85408,13.85408,0,0,0-7.403,7.403,13.543,13.543,0,0,0-1.08865,5.39449v13.88674Z" transform="translate(-140.20884 -387.02709)"/><path class="cls-1" d="M497.82323,457.379H483.937V387.99465h27.77237a27.09423,27.09423,0,0,1,7.35483.99277,27.56726,27.56726,0,0,1,6.60423,2.80628A27.99377,27.99377,0,0,1,538.443,408.41329a27.73119,27.73119,0,0,1-1.18562,18.12081,27.8482,27.8482,0,0,1-14.782,14.78088,26.92168,26.92168,0,0,1-10.766,2.1773H497.82323Zm0-55.49763v27.77347h13.88618a13.37005,13.37005,0,0,0,5.37148-1.0892,13.92278,13.92278,0,0,0,7.37894-7.403,13.91625,13.91625,0,0,0,0-10.789,13.92278,13.92278,0,0,0-7.37894-7.403,13.37005,13.37005,0,0,0-5.37148-1.0892Z" transform="translate(-140.20884 -387.02709)"/><path class="cls-1" d="M566.40494,457.379H552.5182V387.99465h27.77238a27.09428,27.09428,0,0,1,7.35483.99277,27.56736,27.56736,0,0,1,6.60422,2.80628,27.99387,27.99387,0,0,1,12.77453,16.61959,27.7313,27.7313,0,0,1-1.18563,18.12081,27.84812,27.84812,0,0,1-14.782,14.78088,26.92167,26.92167,0,0,1-10.766,2.1773H566.40494Zm0-55.49763v27.77347h13.88564a13.37009,13.37009,0,0,0,5.37148-1.0892,13.92281,13.92281,0,0,0,7.37893-7.403,13.91613,13.91613,0,0,0,0-10.789,13.92281,13.92281,0,0,0-7.37893-7.403,13.37009,13.37009,0,0,0-5.37148-1.0892Z" transform="translate(-140.20884 -387.02709)"/><path class="cls-1" d="M634.9861,457.379H621.09937V387.99465H634.9861Z" transform="translate(-140.20884 -387.02709)"/><polygon class="cls-2" points="121.001 115.514 120.783 115.514 106.929 95.196 106.929 125.946 102.746 125.946 102.746 87.915 107.092 87.915 120.946 108.669 134.799 87.915 139.146 87.915 139.146 125.946 134.854 125.946 134.854 95.142 121.001 115.514"/><path class="cls-2" d="M333.68356,512.97291h-4.6189l-4.45427-10.05032H303.911l-4.51,10.05032h-4.39984l17.33116-38.30141h4.02013Zm-19.39566-33.2497-8.69346,19.39566H322.9256Z" transform="translate(-140.20884 -387.02709)"/><path class="cls-2" d="M375.51521,512.97291l-11.0288-14.77676h-10.8655v14.77676h-4.2923V474.94234h16.35268a18.46422,18.46422,0,0,1,5.67837.8165,12.79338,12.79338,0,0,1,4.31885,2.31012,10.28736,10.28736,0,0,1,2.77081,3.58731,10.84532,10.84532,0,0,1,.97715,4.64678,11.26915,11.26915,0,0,1-.76075,4.26707,9.70732,9.70732,0,0,1-2.14548,3.26071,12.02006,12.02006,0,0,1-3.28727,2.31145,15.2711,15.2711,0,0,1-4.129,1.30375l11.68067,15.52688Zm-2.94075-32.07473q-2.559-1.98748-7.18923-1.98882H353.62091v15.48307h11.70988a13.49576,13.49576,0,0,0,3.92188-.54434,9.59577,9.59577,0,0,0,3.104-1.55468A7.13129,7.13129,0,0,0,374.4,489.81336a7.353,7.353,0,0,0,.73552-3.32709A6.67655,6.67655,0,0,0,372.57446,480.89818Z" transform="translate(-140.20884 -387.02709)"/><path class="cls-2" d="M429.13772,512.97291h-5.37831l-14.61479-18.41718-8.09469,8.20356v10.21362h-4.2923V474.94234h4.2923v22.70948l21.83986-22.70948h5.54162l-16.29825,16.62485Z" transform="translate(-140.20884 -387.02709)"/><path class="cls-2" d="M448.64092,474.94234v38.03057H444.35V474.94234Z" transform="translate(-140.20884 -387.02709)"/><path class="cls-2" d="M495.41674,478.85493H472.21868v12.98443h20.75385v3.91126H472.21868v13.311h23.47023v3.91126H467.92639V474.94234h27.49035Z" transform="translate(-140.20884 -387.02709)"/><path class="cls-2" d="M511.553,478.74606v-3.80372H541.2154V477.826l-24.66511,31.34452H541.2154v3.80239H510.73784v-2.88366l24.61067-31.34319Z" transform="translate(-140.20884 -387.02709)"/><path class="cls-2" d="M585.76475,478.85493H562.5667v12.98443h20.75384v3.91126H562.5667v13.311h23.47022v3.91126H558.2744V474.94234h27.49035Z" transform="translate(-140.20884 -387.02709)"/><path class="cls-2" d="M630.80267,474.94234h4.18343v38.03057h-3.42269l-24.55624-31.1852v31.1852h-4.18343V474.94234h4.02013l23.9588,30.47889Z" transform="translate(-140.20884 -387.02709)"/><rect class="cls-3" x="652.79825" y="509.13282" width="106.9929" height="3.84009" transform="translate(1272.38057 635.07865) rotate(-180)"/><path class="cls-3" d="M751.92878,456.20513,728.038,420.10376l-35.974-24.12418-39.26554-7.98493v25.73843l28.07391,5.56366-6.66339,16.35219-.25958.63657-1.48556-.29828-19.66555-3.94884V457.309s11.51643,2.42969,11.43495,2.37642l-3.46539,8.37535-1.61518,3.90387-1.53468,3.7089-4.8197-1.005v3.56488l3.03407.63064,3.28241,1.7712,3.94339,2.66816,2.21956,2.52642,2.36122,3.44762,1.48767,3.14059.55184,2.88285h3.55029l-.928-4.47559,4.37975-1.83316,3.67813-1.53927,8.04291-3.36606,2.19711,11.21408h25.22867l-4.24736-21.00245,17.13778-6.94415,5.43643,27.9466h25.63707ZM665.44309,480.6822l-4.753-3.353,6.795-16.153,10.38478,6.97863-6.92541,6.97379.002.00207Zm5.45741,6.98107-2.96625-4.48994,5.98161-6.01527-.001-.00106,6.36869-6.39584,6.72617,10.12056Zm24.901-37.25547-2.67674-1.78945-16.15966-10.80346,1.20094-2.933,5.80708-14.18341,18.64839,12.59246,6.07041,4.099-12.45194,12.5751Zm14.56789,21.00246L697.8826,452.72251l1.587-1.59738,11.45186-11.52643,8.43683,12.7366,8.06389,12.17338Z" transform="translate(-140.20884 -387.02709)"/></svg>